<svg width="126" height="360" viewBox="0 0 126 360" fill="none" xmlns="http://www.w3.org/2000/svg">
<path d="M118.126 16.6172C116.754 7.27208 108.69 0.5 99.229 0.5H51H3.34589C-6.3591 0.5 -14.5755 7.63516 -15.8186 17.2535C-18.7733 40.1154 -23.5 80.1822 -23.5 102.5V102.504C-23.5 134.98 -23.5 187.632 4.4701 264.83C12.1059 285.905 23.8427 309.63 33.6773 328.096C38.5934 337.327 43.0319 345.24 46.2411 350.845C47.8457 353.647 49.143 355.872 50.0389 357.396C50.4283 358.059 50.7419 358.589 50.972 358.976C51.1771 358.584 51.4557 358.051 51.8015 357.386C52.6053 355.84 53.7725 353.586 55.2256 350.751C58.132 345.082 62.1819 337.091 66.7564 327.807C75.9063 309.236 87.15 285.499 95.5366 264.812C125.5 190.902 125.5 148.477 125.5 102.508V102.5C125.5 71.9687 121.088 36.7919 118.126 16.6172Z" fill="#EAEBFF" stroke="#BFC8D9"/>
</svg>
